<svg xmlns="http://www.w3.org/2000/svg" viewBox="0 0 512 512">
  <rect width="512" height="512" rx="112" fill="#020617"/>
  <path d="M256 96 C 176 176, 156 244, 208 316 C 180 284, 180 244, 220 212 C 212 268, 240 288, 264 300 C 240 272, 252 244, 288 216 C 284 260, 312 272, 328 284 C 360 248, 356 184, 256 96 Z" fill="#f59e0b"/>
  <path d="M256 328 C 212 328, 184 356, 184 392 C 184 424, 216 448, 256 448 C 296 448, 328 424, 328 392 C 328 356, 300 328, 256 328 Z M 256 360 C 280 360, 300 376, 300 396 C 300 416, 280 428, 256 428 C 232 428, 212 416, 212 396 C 212 376, 232 360, 256 360 Z" fill="#fbbf24"/>
</svg>
